<?xml version="1.0" encoding="utf-8"?>
<!-- Generator: Adobe Illustrator 27.5.0, SVG Export Plug-In . SVG Version: 6.00 Build 0)  -->
<svg version="1.1" xmlns="http://www.w3.org/2000/svg" xmlns:xlink="http://www.w3.org/1999/xlink" x="0px" y="0px"
	 viewBox="0 0 1200 800" style="enable-background:new 0 0 1200 800;" xml:space="preserve">
<g id="Background">
	
		<radialGradient id="SVGID_1_" cx="633.0032" cy="399.5905" r="1410.1654" gradientTransform="matrix(1.5 0 0 0.6667 -300 133.593)" gradientUnits="userSpaceOnUse">
		<stop  offset="0.169" style="stop-color:#F5F5F5"/>
		<stop  offset="0.9919" style="stop-color:#C7C7C7"/>
	</radialGradient>
	<rect style="fill:url(#SVGID_1_);" width="1200" height="800"/>
</g>
<g id="Graphic_Elements">
	<g>
		<defs>
			<rect id="SVGID_00000036213813747713214480000012707684036204706959_" width="1200" height="800"/>
		</defs>
		<clipPath id="SVGID_00000122707629085428647880000008213067898542092434_">
			<use xlink:href="#SVGID_00000036213813747713214480000012707684036204706959_"  style="overflow:visible;"/>
		</clipPath>
		<g style="clip-path:url(#SVGID_00000122707629085428647880000008213067898542092434_);">
			<g>
				<g>
					<path style="fill:#CBCBCB;" d="M-72.057-25.322c0.632,0-62.597,125.194-62.597,125.194l-62.491-124.983L-72.057-25.322z"/>
					<path style="fill:#989898;" d="M178.129-25.322c0.632,0-62.597,125.194-62.597,125.194L53.041-25.111L178.129-25.322z"/>
					<path style="fill:#B7B7B7;" d="M-134.594,99.872c-0.632,0,62.597-125.194,62.597-125.194L-9.506,99.661L-134.594,99.872z"/>
					<path style="fill:#E5E5E5;" d="M-72.048-25.322c-0.632,0,62.597-125.194,62.597-125.194L53.041-25.533L-72.048-25.322z"/>
					<path style="fill:#E4E4E4;" d="M-197.141,225.276c-0.632,0,62.597-125.194,62.597-125.194l62.491,124.983L-197.141,225.276z"/>
					<path style="fill:#A9A9A9;" d="M-259.687,99.872c-0.632,0,62.597-125.194,62.597-125.194l62.491,124.983L-259.687,99.872z"/>
					<path style="fill:#CACACA;" d="M-9.501,99.872c-0.632,0,62.597-125.194,62.597-125.194l62.491,124.983L-9.501,99.872z"/>
					<path style="fill:#989898;" d="M-72.048,225.065c-0.632,0,62.597-125.194,62.597-125.194l62.492,124.983L-72.048,225.065z"/>
					<path style="fill:#838383;" d="M-9.511,99.872c0.632,0-62.597,125.194-62.597,125.194l-62.492-124.983L-9.511,99.872z"/>
					<path style="fill:#E4E4E4;" d="M115.582,99.872c0.632,0-62.597,125.194-62.597,125.194L-9.506,100.082L115.582,99.872z"/>
					<path style="fill:#A9A9A9;" d="M53.036,225.276c0.632,0-62.597,125.194-62.597,125.194l-62.491-124.983L53.036,225.276z"/>
					<path style="fill:#7D7D7D;" d="M-9.511-150.516c0.632,0-62.597,125.194-62.597,125.194l-62.492-124.983L-9.511-150.516z"/>
					<path style="fill:#A9A9A9;" d="M115.582-150.516c0.632,0-62.597,125.194-62.597,125.194L-9.506-150.305L115.582-150.516z"/>
					<path style="fill:#7D7D7D;" d="M53.045,225.065c-0.632,0,62.597-125.194,62.597-125.194l62.492,124.983L53.045,225.065z"/>
					
						<linearGradient id="SVGID_00000147207016040713410220000003575460853025736107_" gradientUnits="userSpaceOnUse" x1="72.0092" y1="-97.4032" x2="197.1022" y2="-97.4032">
						<stop  offset="0.169" style="stop-color:#FFFFFF"/>
						<stop  offset="0.9919" style="stop-color:#E1E1E1"/>
					</linearGradient>
					<path style="fill:url(#SVGID_00000147207016040713410220000003575460853025736107_);" d="M72.014-34.806
						C71.382-34.806,134.611-160,134.611-160l62.491,124.983L72.014-34.806z"/>
					<path style="fill:#989898;" d="M-72.048,475.874c-0.632,0,62.597-125.194,62.597-125.194l62.492,124.983L-72.048,475.874z"/>
					<path style="fill:#A9A9A9;" d="M53.036-25.322c0.632,0-62.597,125.194-62.597,125.194L-72.052-25.111L53.036-25.322z"/>
				</g>
			</g>
			<g>
				<path style="fill:#CBCBCB;" d="M1219.356,696.964c0.632,0-62.597,125.194-62.597,125.194l-62.491-124.983L1219.356,696.964z"/>
				<path style="fill:#B7B7B7;" d="M1156.819,822.158c-0.632,0,62.597-125.194,62.597-125.194l62.491,124.983L1156.819,822.158z"/>
				<path style="fill:#E5E5E5;" d="M1219.365,696.964c-0.632,0,62.597-125.194,62.597-125.194l62.491,124.983L1219.365,696.964z"/>
				<path style="fill:#E4E4E4;" d="M1094.272,947.563c-0.632,0,62.597-125.194,62.597-125.194l62.491,124.983L1094.272,947.563z"/>
				<path style="fill:#A9A9A9;" d="M1031.726,822.158c-0.632,0,62.597-125.194,62.597-125.194l62.491,124.983L1031.726,822.158z"/>
				<path style="fill:#CACACA;" d="M1281.912,822.158c-0.632,0,62.597-125.194,62.597-125.194L1407,821.947L1281.912,822.158z"/>
				<path style="fill:#989898;" d="M1219.365,947.352c-0.632,0,62.597-125.194,62.597-125.194l62.491,124.983L1219.365,947.352z"/>
				<path style="fill:#838383;" d="M1281.902,822.158c0.632,0-62.597,125.194-62.597,125.194l-62.491-124.983L1281.902,822.158z"/>
				<path style="fill:#CBCBCB;" d="M1406.995,822.158c0.632,0-62.597,125.194-62.597,125.194l-62.492-124.983L1406.995,822.158z"/>
				<path style="fill:#7D7D7D;" d="M1281.902,571.771c0.632,0-62.597,125.194-62.597,125.194l-62.491-124.983L1281.902,571.771z"/>
				<path style="fill:#CACACA;" d="M1344.449,446.577c0.632,0-62.597,125.194-62.597,125.194l-62.492-124.983L1344.449,446.577z"/>
				<path style="fill:#CACACA;" d="M1262.542,311.516c0.632,0-62.597,125.194-62.597,125.194l-62.491-124.983L1262.542,311.516z"/>
				<path style="fill:#CACACA;" d="M1156.819,1072.546c-0.632,0,62.597-125.194,62.597-125.194l62.491,124.983L1156.819,1072.546z"
					/>
				<path style="fill:#A9A9A9;" d="M1344.449,696.964c0.632,0-62.597,125.194-62.597,125.194l-62.492-124.983L1344.449,696.964z"/>
				<path style="fill:#CBCBCB;" d="M1136.139,561.904c0.632,0-62.597,125.194-62.597,125.194l-62.491-124.983L1136.139,561.904z"/>
				
					<linearGradient id="SVGID_00000176008002273455847050000017690276657555760566_" gradientUnits="userSpaceOnUse" x1="1136.1439" y1="499.3068" x2="1261.2369" y2="499.3068">
					<stop  offset="0.169" style="stop-color:#FFFFFF"/>
					<stop  offset="0.9919" style="stop-color:#E1E1E1"/>
				</linearGradient>
				<path style="fill:url(#SVGID_00000176008002273455847050000017690276657555760566_);" d="M1136.149,561.904
					c-0.632,0,62.597-125.194,62.597-125.194l62.491,124.983L1136.149,561.904z"/>
				<path style="fill:#E4E4E4;" d="M1073.602,687.097c-0.632,0,62.597-125.194,62.597-125.194l62.491,124.983L1073.602,687.097z"/>
				<path style="fill:#7D7D7D;" d="M1198.686,436.71c0.632,0-62.597,125.194-62.597,125.194l-62.491-124.983L1198.686,436.71z"/>
			</g>
		</g>
	</g>
</g>
</svg>
